<svg width="20" height="20" viewBox="0 0 20 20" fill="none" xmlns="http://www.w3.org/2000/svg">
<path d="M13.4987 2.1083L16.182 2.1083C17.707 2.1083 18.957 3.34993 18.957 4.88326L18.957 9.71658C18.957 10.0582 18.6737 10.3416 18.332 10.3416L13.4987 10.3416C11.9154 10.3416 10.7237 9.14995 10.7237 7.56662L10.7237 4.88326C10.732 3.29993 11.9237 2.1083 13.4987 2.1083ZM17.707 9.08329L17.707 4.87492C17.707 4.03325 17.0237 3.34996 16.182 3.34996L13.4987 3.34996C12.6154 3.34996 11.9737 3.99159 11.9737 4.87492L11.9737 7.55828C11.9737 8.44161 12.6154 9.08329 13.4987 9.08329L17.707 9.08329Z" fill="#524541"/>
<path d="M18.332 9.0833C18.6737 9.0833 18.957 9.36663 18.957 9.7083C18.957 14.9166 17.8987 16.0083 14.8737 17.7999C14.5737 17.9749 14.1904 17.8749 14.0154 17.5833C13.8404 17.2833 13.9404 16.9 14.232 16.725C16.932 15.125 17.707 14.4583 17.707 9.7083C17.707 9.36663 17.9904 9.0833 18.332 9.0833Z" fill="#524541"/>
<path d="M3.81511 2.1083L6.49842 2.1083C8.02342 2.1083 9.27344 3.34993 9.27344 4.88326L9.27344 9.71658C9.27344 10.0582 8.9901 10.3416 8.64844 10.3416L3.81511 10.3416C2.23178 10.3416 1.0401 9.14995 1.0401 7.56662L1.0401 4.88326C1.0401 3.29993 2.23178 2.1083 3.81511 2.1083ZM8.0151 9.08329L8.0151 4.87492C8.0151 4.03325 7.33175 3.34996 6.49008 3.34996L3.80677 3.34996C2.92344 3.34996 2.28176 3.99159 2.28176 4.87492L2.28176 7.55828C2.28176 8.44161 2.92344 9.08329 3.80677 9.08329L8.0151 9.08329Z" fill="#524541"/>
<path d="M8.64062 9.0833C8.98229 9.0833 9.26562 9.36663 9.26562 9.7083C9.26562 14.9166 8.20727 16.0083 5.18227 17.7999C4.88227 17.9749 4.49896 17.8749 4.32396 17.5833C4.14896 17.2833 4.24897 16.9 4.54064 16.725C7.24064 15.125 8.01562 14.4583 8.01562 9.7083C8.01562 9.36663 8.29896 9.0833 8.64062 9.0833Z" fill="#524541"/>
</svg>
